# Blender 4.4.0
# www.blender.org
mtllib switchOn.mtl
o 立方体.002
v 0.207107 1.075736 -0.200000
v -0.924264 2.207107 -0.200000
v 0.207107 1.075736 0.200000
v -0.924264 2.207107 0.200000
v -0.075736 0.792893 -0.200000
v -1.207107 1.924264 -0.200000
v -0.075736 0.792893 0.200000
v -1.207107 1.924264 0.200000
v 1.000000 -1.000000 -1.000000
v 1.000000 1.000000 -1.000000
v 1.000000 -1.000000 1.000000
v 1.000000 1.000000 1.000000
v -1.000000 -1.000000 -1.000000
v -1.000000 1.000000 -1.000000
v -1.000000 -1.000000 1.000000
v -1.000000 1.000000 1.000000
v 0.800000 1.000000 -0.500000
v 0.800000 1.400000 -0.500000
v 0.800000 1.000000 0.500000
v 0.800000 1.400000 0.500000
v -0.800000 1.000000 -0.500000
v -0.800000 1.400000 -0.500000
v -0.800000 1.000000 0.500000
v -0.800000 1.400000 0.500000
vn 0.7071 0.7071 -0.0000
vn -0.0000 -0.0000 1.0000
vn -0.7071 -0.7071 -0.0000
vn -0.0000 -0.0000 -1.0000
vn 0.7071 -0.7071 -0.0000
vn -0.7071 0.7071 -0.0000
vn 1.0000 -0.0000 -0.0000
vn -1.0000 -0.0000 -0.0000
vn -0.0000 -1.0000 -0.0000
vn -0.0000 1.0000 -0.0000
vt 0.753233 0.385569
vt 0.928747 0.341690
vt 0.928747 0.385569
vt 0.753233 0.517204
vt 0.928747 0.473326
vt 0.928747 0.517204
vt 0.753233 0.473326
vt 0.928747 0.429447
vt 0.753233 0.429447
vt 0.972626 0.429447
vt 0.972626 0.473326
vt 0.709355 0.385569
vt 0.709355 0.429447
vt 0.438917 0.438917
vt 0.219524 0.219524
vt 0.438917 0.219524
vt 0.219524 0.438917
vt 0.000132 0.658310
vt 0.000132 0.438917
vt 0.219524 0.658310
vt 0.438917 0.877703
vt 0.219524 0.877703
vt 0.438917 0.658310
vt 0.658310 0.438917
vt 0.658310 0.658310
vt 0.219524 0.000132
vt 0.583210 0.214539
vt 0.473564 0.170535
vt 0.583261 0.170661
vt 0.583437 0.017086
vt 0.758901 0.061166
vt 0.583387 0.060964
vt 0.868421 0.214867
vt 0.758775 0.170862
vt 0.868471 0.170988
vt 0.758725 0.214741
vt 0.583084 0.324236
vt 0.758599 0.324437
vt 0.753233 0.341690
vt 0.438917 0.000132
vt 0.473514 0.214413
vt 0.758951 0.017287
s 0
usemtl マテリアル.002
f 2/1/1 3/2/1 1/3/1
f 4/4/2 7/5/2 3/6/2
f 8/7/3 5/8/3 7/5/3
f 6/9/4 1/3/4 5/8/4
f 7/5/5 1/10/5 3/11/5
f 4/12/6 6/9/6 8/13/6
f 10/14/7 11/15/7 9/16/7
f 12/17/2 15/18/2 11/19/2
f 16/20/8 13/21/8 15/22/8
f 14/23/4 9/24/4 13/25/4
f 15/26/9 9/16/9 11/15/9
f 12/17/10 14/23/10 16/20/10
f 18/27/7 19/28/7 17/29/7
f 20/30/2 23/31/2 19/32/2
f 24/33/8 21/34/8 23/35/8
f 22/36/4 17/29/4 21/34/4
f 23/31/9 17/29/9 19/32/9
f 20/37/10 22/36/10 24/38/10
f 2/1/1 4/39/1 3/2/1
f 4/4/2 8/7/2 7/5/2
f 8/7/3 6/9/3 5/8/3
f 6/9/4 2/1/4 1/3/4
f 7/5/5 5/8/5 1/10/5
f 4/12/6 2/1/6 6/9/6
f 10/14/7 12/17/7 11/15/7
f 12/17/2 16/20/2 15/18/2
f 16/20/8 14/23/8 13/21/8
f 14/23/4 10/14/4 9/24/4
f 15/26/9 13/40/9 9/16/9
f 12/17/10 10/14/10 14/23/10
f 18/27/7 20/41/7 19/28/7
f 20/30/2 24/42/2 23/31/2
f 24/33/8 22/36/8 21/34/8
f 22/36/4 18/27/4 17/29/4
f 23/31/9 21/34/9 17/29/9
f 20/37/10 18/27/10 22/36/10
